<svg xmlns="http://www.w3.org/2000/svg" width="1280" height="720" viewBox="0 0 1280 720">
  <defs>
    <linearGradient id="bg" x1="0" y1="0" x2="0" y2="1">
      <stop offset="0" stop-color="#9FB0C2"/>
      <stop offset="1" stop-color="#76889C"/>
    </linearGradient>
    <radialGradient id="glow" cx="0.5" cy="0.42" r="0.75">
      <stop offset="0" stop-color="#FFFFFF" stop-opacity="0.14"/>
      <stop offset="1" stop-color="#FFFFFF" stop-opacity="0"/>
    </radialGradient>
  </defs>
  <rect width="1280" height="720" fill="url(#bg)"/>
  <rect width="1280" height="720" fill="url(#glow)"/>
  <rect x="40" y="40" width="1200" height="640" rx="28" fill="none" stroke="#FFFFFF" stroke-opacity="0.5" stroke-width="2"/>

  <!-- wall camera + vision cone toward the hand -->
  <line x1="940" y1="66" x2="940" y2="102" stroke="#3E4C5E" stroke-width="8"/>
  <rect x="896" y="102" width="88" height="46" rx="12" fill="#3E4C5E"/>
  <circle cx="940" cy="125" r="11" fill="#9FB0C2"/>
  <circle cx="940" cy="125" r="5" fill="#1F2937"/>
  <polygon points="930,150 500,160 640,360" fill="#FFFFFF" opacity="0.16"/>

  <!-- hospital bed -->
  <rect x="140" y="470" width="330" height="66" rx="16" fill="#7A8CA0"/>
  <rect x="152" y="438" width="92" height="52" rx="12" fill="#C8D0D8"/>
  <rect x="160" y="536" width="14" height="70" fill="#334155"/>
  <rect x="436" y="536" width="14" height="70" fill="#334155"/>

  <!-- seated person, arm raised -->
  <circle cx="430" cy="295" r="36" fill="#E8C39E"/>
  <rect x="385" y="335" width="95" height="170" rx="40" fill="#5B7C99"/>
  <line x1="470" y1="368" x2="562" y2="322" stroke="#5B7C99" stroke-width="24" stroke-linecap="round"/>
  <line x1="415" y1="500" x2="415" y2="565" stroke="#334155" stroke-width="20" stroke-linecap="round"/>
  <line x1="452" y1="500" x2="452" y2="565" stroke="#334155" stroke-width="20" stroke-linecap="round"/>

  <!-- palm + 21-landmark skeleton -->
  <ellipse cx="578" cy="248" rx="58" ry="74" fill="#E8C39E"/>
  <g stroke="#0FB4C4" stroke-width="3" fill="none">
    <polyline points="570,324 545,285 530,252 520,224 510,201"/>
    <polyline points="570,324 540,238 535,201 530,176 530,154"/>
    <polyline points="540,238 570,232 570,193 570,168 570,146"/>
    <polyline points="570,232 600,238 605,201 607,176 610,157"/>
    <polyline points="600,238 630,252 640,218 645,196 650,179"/>
    <line x1="570" y1="324" x2="630" y2="252"/>
  </g>
  <g fill="#0FB4C4">
    <circle cx="570" cy="324" r="6"/>
    <circle cx="545" cy="285" r="4"/><circle cx="530" cy="252" r="4"/><circle cx="520" cy="224" r="4"/><circle cx="510" cy="201" r="4"/>
    <circle cx="540" cy="238" r="4"/><circle cx="535" cy="201" r="4"/><circle cx="530" cy="176" r="4"/><circle cx="530" cy="154" r="4"/>
    <circle cx="570" cy="232" r="4"/><circle cx="570" cy="193" r="4"/><circle cx="570" cy="168" r="4"/><circle cx="570" cy="146" r="4"/>
    <circle cx="600" cy="238" r="4"/><circle cx="605" cy="201" r="4"/><circle cx="607" cy="176" r="4"/><circle cx="610" cy="157" r="4"/>
    <circle cx="630" cy="252" r="4"/><circle cx="640" cy="218" r="4"/><circle cx="645" cy="196" r="4"/><circle cx="650" cy="179" r="4"/>
  </g>
  <rect x="496" y="132" width="170" height="208" fill="none" stroke="#B8E356" stroke-width="3"/>
  <rect x="496" y="92" width="212" height="36" rx="8" fill="#D3F28A"/>
  <text x="514" y="117" font-family="DejaVu Sans" font-weight="bold" font-size="20" fill="#3E4C5E">OPEN_PALM 0.98</text>

  <!-- gesture class chips -->
  <g font-family="DejaVu Sans" font-weight="bold" font-size="19">
    <rect x="980" y="270" width="160" height="38" rx="9" fill="#D3F28A"/>
    <text x="998" y="296" fill="#3E4C5E">OPEN_PALM</text>
    <rect x="980" y="322" width="160" height="38" rx="9" fill="#FFFFFF" fill-opacity="0.16"/>
    <text x="998" y="348" fill="#FFFFFF" opacity="0.9">CLOSED_FIST</text>
    <rect x="980" y="374" width="160" height="38" rx="9" fill="#FFFFFF" fill-opacity="0.16"/>
    <text x="998" y="400" fill="#FFFFFF" opacity="0.9">THUMB_UP</text>
    <rect x="980" y="426" width="160" height="38" rx="9" fill="#FFFFFF" fill-opacity="0.16"/>
    <text x="998" y="452" fill="#FFFFFF" opacity="0.9">VICTORY</text>
  </g>

  <!-- caption -->
  <g font-family="DejaVu Sans" font-weight="bold" fill="#FFFFFF" opacity="0.55" text-anchor="end" letter-spacing="2">
    <text x="1180" y="600" font-size="34">TOUCHLESS GESTURE CALL</text>
    <text x="1180" y="640" font-size="26">8 CLASSES - ON-DEVICE NPU</text>
  </g>
</svg>
